<svg xmlns="http://www.w3.org/2000/svg" viewBox="0 0 104.66 66.06">
  <path fill="#00385D" d="M62.1 39.66a4.26 4.26 0 0 1 .43.48l5.6 8.34.46.7 6.15-9.43.4.02.6 14.37h-2.36l-.2-8.27-.12-.04-4.47 6.75a14.55 14.55 0 0 1-1.6-2.24c-.53-.76-1.03-1.54-1.54-2.3l-1.48-2.24-.12.02-.17 8.33H61.3l.6-14.4Zm34.54 14.5H94.2v-14.1l2.57-.2a11.08 11.08 0 0 1 3.64.3 4.19 4.19 0 0 1 3.3 3.56 4.38 4.38 0 0 1-2.37 4.54l-.36.2 3.68 5.69h-2.78l-3.08-5.06h-2.17Zm0-7.05a26.08 26.08 0 0 0 2.64-.2 2.45 2.45 0 0 0 .62-4.53 6.14 6.14 0 0 0-3.26-.26Zm-84.92 7.05H9.33v-6.04H2.77v6.02H.35V39.98h2.39v5.9h6.54v-5.89h2.44Zm42.48-14.2h2.4l.04.51-.01 8.19a8.26 8.26 0 0 1-.21 1.78 4.78 4.78 0 0 1-3.77 3.78 7.53 7.53 0 0 1-3.58 0 4.65 4.65 0 0 1-3.7-3.93 8.11 8.11 0 0 1-.14-1.52c-.01-2.8 0-5.6 0-8.41l.01-.39h2.36l.03.63v7.46a9.12 9.12 0 0 0 .13 1.63 3.23 3.23 0 0 0 6.39-.58c.05-2.83.03-5.65.04-8.47v-.68Zm-26.16.01a3.32 3.32 0 0 1 .04.35c0 2.93.03 5.87-.02 8.8a5.08 5.08 0 0 1-5.29 5.27 8.96 8.96 0 0 1-2.34-.21 4.67 4.67 0 0 1-3.67-4.27c-.06-.64-.09-1.28-.1-1.92v-8.03h2.46v.65c0 2.77 0 5.53.02 8.3a4.38 4.38 0 0 0 .23 1.33 2.9 2.9 0 0 0 3.24 1.96 2.9 2.9 0 0 0 3-2.91 9.31 9.31 0 0 0 .06-1.07v-8.26ZM83.1 52.02h6.18v2.12h-8.6V39.99h8.6v2.15H83.1v3.75h5.56v2.15H83.1ZM40.78 40.78l-.73 1.99a19.1 19.1 0 0 0-2.17-.8 3.83 3.83 0 0 0-1.55.01 1.6 1.6 0 0 0-1.34 1.36 1.51 1.51 0 0 0 .74 1.64c.7.43 1.44.79 2.18 1.15a6.38 6.38 0 0 1 2.49 1.81 4.13 4.13 0 0 1-1.5 5.87 6.15 6.15 0 0 1-4.99.2 22.18 22.18 0 0 1-2.04-.92l.83-2.18c.54.27 1.05.55 1.57.79a4.75 4.75 0 0 0 2.63.43 1.76 1.76 0 0 0 1.6-1.23 1.67 1.67 0 0 0-.58-2.02 27.73 27.73 0 0 0-2.57-1.4 5.03 5.03 0 0 1-2.48-2.2 3.8 3.8 0 0 1 1.5-4.82 6.15 6.15 0 0 1 6.4.32Z"/>
  <path fill="#e30613" d="m32.38 32.56-1.4-5.6 11.8-3.68c.22 1.02.44 1.91.58 2.81.03.16-.25.44-.45.56-1.71.99-3.43 1.95-5.15 2.92l-4.61 2.6-.77.4Zm-1.55-10.23.8-5.19 11.59 1.07a17.14 17.14 0 0 1-.52 2.87L30.97 22.5Zm13.11-6.1L33.07 13.2 35.58 9a98.55 98.55 0 0 1 9.7 5 8.45 8.45 0 0 1-1.34 2.24ZM38.37 5.82c1.21-.94 2.37-1.9 3.69-2.8l6.58 7.94-1.82 1.4a84.78 84.78 0 0 1-8.45-6.54Zm6.96-4.42L49.71.25l2.89 9.29a8.4 8.4 0 0 1-2.3.62ZM53.25 0l4.12.43-.88 9.42a18.73 18.73 0 0 1-1.87-.24c-.16-.03-.32-.35-.35-.56l-.57-4.7L53.3.7l-.04-.7Zm10.77 3.35-4.08 7.89a5.27 5.27 0 0 1-1.87-1l2.43-8.7a9.54 9.54 0 0 1 3.52 1.8Zm-1.56 10.41-1.08-1.13c-.29-.32-.12-.58.09-.85l3.46-4.44 1.22-1.56a6.58 6.58 0 0 1 .5-.48L69 8.2Zm7.98-2.75.9 3.5-7.52 2.38-.61-1.83Zm-6.62 9.21.14-1.88 7.36-.9a8.6 8.6 0 0 1-.26 3.4c-2.37-.12-4.75-.42-7.24-.62Zm-1.1 2.99.72-1.67 6.71 1.84a6.68 6.68 0 0 1-1.47 2.94Zm4.47 5.19-2.46 2.05-4.14-4.98 1.33-1.2Zm-7.77-2.3 3.1 5.5a19.74 19.74 0 0 1-2.93.83l-1.81-5.83Z"/>
  <path fill="#00385D" d="M6.49 65.94H5.8l-.13-4.5-.1-.06-2.35 3.93L.9 61.42l-.14.03v4.47l-.77.05.24-6.67.13-.05 2.9 4.98 2.81-4.97.14.03.27 6.65Z"/>
  <path fill="#e30613" d="m54.99 26.42 1.54.2.72 5.97-2.7-.36a1.94 1.94 0 0 1-.11-.53c.13-1.6.27-3.18.42-4.77a4.23 4.23 0 0 1 .13-.51Z"/>
  <path fill="#00385D" d="m74.66 59.18 4.15 4.95.14-.02v-4.8h.67v6.63l-.09.06-4.19-5-.13.04v4.86l-.65.03v-6.68ZM19.31 66l-4.16-5-.13.03v4.85l-.69.04v-6.7l.1-.07 4.17 4.97.11-.02v-4.82h.7v6.65Zm35.07-3.6a5.1 5.1 0 0 1 .99 1.17 1.67 1.67 0 0 1-1.1 2.21 5.24 5.24 0 0 1-2.76.09v-6.49a4.62 4.62 0 0 1 2.85.15 1.49 1.49 0 0 1 .94 1.36 1.43 1.43 0 0 1-.92 1.5Zm-2.18 2.96c.52 0 .97.04 1.41 0a1.22 1.22 0 0 0 1.12-1.09 1.1 1.1 0 0 0-.84-1.28 11.08 11.08 0 0 0-1.69-.22Zm0-3.15a3.02 3.02 0 0 0 1.75-.15 1.06 1.06 0 0 0 .66-1.03 1.03 1.03 0 0 0-.64-1.03 2.56 2.56 0 0 0-1.78-.07ZM88.23 66l-4.17-5-.13.04v4.84h-.68v-6.65l.1-.05 4.18 4.97.12-.04v-4.8l.66-.05v6.69Zm11.68-.1h-.65v-6.65l.1-.06 4.16 4.96.11-.04v-4.8l.65-.05v6.8l-4.25-5.08-.12.03Zm-66.96-2.7 1.88 2.72H34l-1.77-2.59H31v2.57l-.65.03v-6.56a4.71 4.71 0 0 1 3.12.26 1.93 1.93 0 0 1 .04 3.25l-.57.32Zm-1.94-.43a12.23 12.23 0 0 0 1.65-.15 1.2 1.2 0 0 0 .97-1.28 1.27 1.27 0 0 0-.9-1.34 2.94 2.94 0 0 0-1.72-.03Zm27.67-3.4a5.47 5.47 0 0 1 2.76.09 1.75 1.75 0 0 1 1.27 1.63 1.81 1.81 0 0 1-1 1.86l-.43.24 1.9 2.74h-.83l-1.77-2.59h-1.24v2.54h-.66Zm.68.56v2.83a12.14 12.14 0 0 0 1.52-.1 1.25 1.25 0 0 0 1.09-1.37 1.28 1.28 0 0 0-1.11-1.35 9.97 9.97 0 0 0-1.5-.01Z"/>
  <path fill="#e30613" d="m52.52 25.24 1.15.69a23.98 23.98 0 0 1-1.53 5.46l-2.18-1.3c.81-1.66 1.65-3.21 2.56-4.85Z"/>
  <path fill="#00385D" d="M70.34 59.32h.6c.04.05.08.08.08.1-.01 1.54.04 3.09-.05 4.62a2.17 2.17 0 0 1-2.28 2 2.24 2.24 0 0 1-2.56-1.79 1.33 1.33 0 0 1-.05-.27V59.3l.6-.02c.02.26.04.48.04.7.02 1.28-.01 2.56.06 3.83a1.61 1.61 0 0 0 1.83 1.63 1.65 1.65 0 0 0 1.72-1.76c.03-1.24.02-2.48.02-3.73v-.64ZM23.02 65.9v-6.58h3.83l.04.57h-3.16v2.36h2.8v.61h-2.8v2.46h3.1l.05.57Zm69.58-6v1.8c0 .16.03.32.05.57h2.78l.03.57h-2.83v2.5h3.09v.56h-3.8v-6.58h3.83l.06.58Z"/>
  <path fill="#e30613" d="m50.97 23.45.7 1.08-3.2 4.04a9.3 9.3 0 0 1-1.45-1.87 17.45 17.45 0 0 1 3.95-3.25Z"/>
  <path fill="#00385D" d="M43.16 65.91h-.72l-.82-1.8h-3l-.8 1.8h-.69l2.94-6.7h.14Zm-2.97-5.2-.13.02-1.17 2.71h2.49Z"/>
  <path fill="#e30613" d="M50.11 21.07c.5.96.42 1.25-.35 1.69l-3 1.68c-.18.1-.36.17-.66.3l-.55-2.25Zm-3.84-3.14 4.29.67c.01.99-.17 1.23-.96 1.3-1.05.1-2.1.17-3.15.26h-.67a6 6 0 0 1 .49-2.23Z"/>
  <path fill="#00385D" d="M46.56 65.35h3.14v.55h-3.76v-6.58l.62-.04Z"/>
  <path fill="#e30613" d="m47.37 15.8 1.04-1.27a10.98 10.98 0 0 1 3.44 2.31l-.45.7Zm6.25-.13c-.48.45-.68.49-.96.15-.7-.81-1.36-1.64-2.03-2.47a1.7 1.7 0 0 1-.15-.4l1.42-.6Z"/>
  <path fill="#00385D" d="M10.62 65.9h-.58v-6.58l.58-.04Z"/>
  <path fill="#e30613" d="M55.59 12.06v3.44l-.72.03-.7-3.55Zm1.54 4.06c-.11-.16-.34-.36-.3-.49.25-.95.55-1.89.88-2.96l1.18.68-1.5 2.75Zm3.07-1.59.8.9a2.7 2.7 0 0 1-.36.4q-.8.59-1.6 1.14c-.4.26-.52.21-.84-.34Zm1.48 2.61.37 1.23-2.55.45c-.43-.36-.47-.64-.1-.8.71-.32 1.45-.56 2.28-.88Zm-2.3 2.65a17.66 17.66 0 0 1 2.53.27l-.36 1.17c-.78-.24-1.48-.4-2.15-.67-.38-.14-.3-.45-.02-.77Zm1.48 2.83-.7.92a9.7 9.7 0 0 1-1.89-1.69l.44-.53Zm-2.06 1.81-.92.41a7.01 7.01 0 0 1-1.03-2.27c.35 0 .68-.09.76.01.41.56.77 1.17 1.2 1.85Zm-2.62.55-1.03-.26.17-1.94.57-.05a5.51 5.51 0 0 1 .3 2.25Zm-1.66-2.28-.57 1.59-.9-.58c.24-.42.43-.79.65-1.13.27-.4.5-.39.82.11Zm-2.72-.82a5.37 5.37 0 0 1 .82-.53.59.59 0 0 1 .54.06.56.56 0 0 1 0 .54 9.6 9.6 0 0 1-.91.92Z"/>
</svg>
